<svg width="153" height="32" viewBox="0 0 153 32" fill="none" xmlns="http://www.w3.org/2000/svg">
<path d="M31.814 0.180314C31.6432 0.0118144 31.3908 -0.0444355 31.165 0.0364394L5.20549 9.29248C4.30361 8.74098 3.15968 8.61186 2.11049 9.0463C0.368934 9.76773 -0.461127 11.7715 0.260246 13.5132C1.96143 17.62 4.41761 21.296 7.56079 24.4392C10.704 27.5824 14.38 30.0386 18.4868 31.7398C18.9133 31.9164 19.3553 32 19.7906 32C21.1328 31.9999 22.409 31.2046 22.9536 29.8894C23.3201 29.0046 23.2855 28.0522 22.935 27.2344L31.9662 0.827375C32.0439 0.600376 31.9847 0.348876 31.814 0.180314ZM9.1361 9.21805L11.8873 8.23717C12.2103 8.5813 12.3678 9.05505 12.3047 9.53417C12.2491 9.95604 12.0326 10.3311 11.695 10.5902C11.3575 10.8492 10.9395 10.9612 10.5173 10.9057C10.0955 10.8502 9.72048 10.6337 9.46142 10.2961C9.22273 9.98504 9.10917 9.60554 9.1361 9.21805ZM21.7988 29.411C21.3411 30.5159 20.0698 31.0424 18.9651 30.5847C10.9627 27.27 4.72999 21.0373 1.41518 13.0348C1.19349 12.4996 1.19349 11.9102 1.41518 11.3749C1.63687 10.8397 2.05368 10.4229 2.58887 10.2012C3.12405 9.97954 3.71355 9.97954 4.24874 10.2012C4.78392 10.4229 5.20074 10.8397 5.42242 11.3749C6.84123 14.8003 8.88998 17.8665 11.5117 20.4882C14.1335 23.11 17.1996 25.1586 20.625 26.5775C21.7299 27.0351 22.2565 28.3063 21.7988 29.411ZM27.3514 10.458C27.2949 10.4567 27.2383 10.4534 27.1818 10.446C26.7599 10.3905 26.3849 10.174 26.1259 9.83642C25.8669 9.49886 25.7548 9.08055 25.8103 8.65873C25.925 7.78786 26.7266 7.17274 27.5978 7.28724C27.8665 7.32261 28.1188 7.42686 28.334 7.58542L27.3514 10.458ZM28.7494 6.37018C28.4449 6.20436 28.1104 6.09393 27.7609 6.04793C26.2064 5.84274 24.7756 6.9413 24.571 8.49561C24.4719 9.24848 24.6719 9.99492 25.1342 10.5974C25.5795 11.1777 26.217 11.5569 26.9361 11.6725L25.6939 15.3049L24.2653 14.2087C23.9914 13.9987 23.599 14.0502 23.389 14.324C23.1788 14.5979 23.2305 14.9902 23.5043 15.2003L25.2671 16.553L22.0363 26.0001C21.7653 25.7645 21.4532 25.5674 21.1036 25.4226C14.4799 22.6789 9.32117 17.5202 6.57761 10.8965C6.48223 10.6662 6.36373 10.4523 6.22705 10.2553L7.90073 9.65854C7.95917 10.1628 8.15273 10.6438 8.46979 11.057C8.93204 11.6595 9.60135 12.0459 10.3542 12.1449C10.4804 12.1615 10.6061 12.1698 10.7312 12.1698C11.353 12.1698 11.9545 11.9667 12.456 11.5819C13.0586 11.1195 13.4449 10.4503 13.5441 9.69729C13.633 9.02136 13.4753 8.35186 13.1211 7.79724L20.8903 5.02712L21.1847 5.73799C21.2845 5.97868 21.5171 6.12399 21.7624 6.12399C21.8421 6.12399 21.9231 6.10861 22.0013 6.07624C22.3202 5.94418 22.4716 5.57849 22.3396 5.25962L22.0692 4.60681L30.3641 1.64919L28.7494 6.37018Z" fill="#FF7010"/>
<path d="M6.75003 16.7673C6.74815 16.7643 6.74297 16.7564 6.74097 16.7535C6.54959 16.4665 6.16228 16.3894 5.87509 16.5806C5.58841 16.7715 5.51066 17.1589 5.70041 17.4461C5.82009 17.63 6.02034 17.7303 6.22491 17.7303C6.34065 17.7303 6.45772 17.6981 6.56222 17.631C6.85259 17.4443 6.93665 17.0576 6.75003 16.7673Z" fill="#FF7010"/>
<path d="M5.79949 15.2145C5.19043 14.1466 4.64293 13.029 4.17224 11.8928C4.04018 11.5738 3.67437 11.4225 3.35568 11.5546C3.03674 11.6866 2.88537 12.0523 3.01749 12.3711C3.50812 13.5556 4.07887 14.7206 4.71374 15.8337C4.82905 16.0358 5.04005 16.1492 5.25718 16.1492C5.36217 16.1492 5.46861 16.1227 5.56624 16.067C5.86605 15.896 5.97055 15.5143 5.79949 15.2145Z" fill="#FF7010"/>
<path d="M19.5582 7.99923C19.4343 7.98286 19.3085 7.97461 19.1842 7.97461C17.7644 7.97461 16.5538 9.03742 16.3683 10.4468C16.1637 12.001 17.2616 13.432 18.8158 13.6367C18.9397 13.653 19.0655 13.6613 19.1898 13.6613C20.6095 13.6613 21.8201 12.5985 22.0057 11.189C22.2103 9.63479 21.1123 8.20386 19.5582 7.99923ZM20.7665 11.0259C20.6625 11.8157 19.9847 12.4112 19.1898 12.4112C19.1199 12.4112 19.049 12.4066 18.979 12.3973C18.1081 12.2827 17.493 11.4809 17.6076 10.6099C17.7116 9.82017 18.3893 9.22467 19.1842 9.22467C19.2541 9.22467 19.325 9.22929 19.395 9.23854C20.2658 9.35329 20.8811 10.155 20.7665 11.0259Z" fill="#FF7010"/>
<path d="M19.3956 15.7732C19.2717 15.7568 19.1459 15.7485 19.0217 15.7485C17.6019 15.7485 16.3912 16.8113 16.2057 18.2208C16.1066 18.9737 16.3066 19.7201 16.7689 20.3226C17.2311 20.9251 17.9004 21.3115 18.6533 21.4107C18.7771 21.427 18.9029 21.4352 19.027 21.4352C20.4469 21.4352 21.6575 20.3724 21.8431 18.9629C22.0478 17.4088 20.9498 15.9779 19.3956 15.7732ZM20.6039 18.7998C20.4999 19.5897 19.822 20.1852 19.0272 20.1852C18.9574 20.1852 18.8864 20.1805 18.8165 20.1713C18.3947 20.1157 18.0197 19.8992 17.7606 19.5617C17.5016 19.2241 17.3895 18.8058 17.4451 18.3839C17.5491 17.5942 18.2269 16.9986 19.0217 16.9986C19.0915 16.9986 19.1625 17.0032 19.2324 17.0125C20.1032 17.1272 20.7185 17.929 20.6039 18.7998Z" fill="#FF7010"/>
<path d="M15.2734 13.1842L13.3524 12.9313C13.0104 12.8858 12.6962 13.1271 12.6512 13.4693C12.6061 13.8115 12.847 14.1255 13.1892 14.1705L15.1102 14.4235C15.1379 14.4272 15.1654 14.4289 15.1926 14.4289C15.5014 14.4289 15.77 14.2 15.8114 13.8855C15.8566 13.5433 15.6157 13.2293 15.2734 13.1842Z" fill="#FF7010"/>
<path d="M14.2993 17.7964L14.1297 16.5074C14.0846 16.1651 13.7707 15.9241 13.4285 15.9693C13.0862 16.0144 12.8454 16.3283 12.8904 16.6705L13.0601 17.9595C13.1015 18.2741 13.3701 18.503 13.6789 18.503C13.7061 18.503 13.7336 18.5012 13.7612 18.4976C14.1035 18.4525 14.3444 18.1386 14.2993 17.7964Z" fill="#FF7010"/>
<path d="M148.757 20.825C147.721 20.825 146.855 20.5909 146.159 20.1228C145.468 19.6487 145.082 19.0225 145 18.2442H146.554C146.647 18.6538 146.887 18.9757 147.274 19.2098C147.666 19.438 148.16 19.5522 148.757 19.5522C149.442 19.5522 149.983 19.4059 150.381 19.1132C150.779 18.8206 150.978 18.4344 150.978 17.9545C150.978 16.9069 150.238 16.3832 148.757 16.3832H147.282V15.1191H148.757C149.998 15.1191 150.618 14.648 150.618 13.7057C150.618 13.2902 150.457 12.9567 150.135 12.705C149.814 12.4475 149.354 12.3188 148.757 12.3188C148.189 12.3188 147.713 12.4329 147.326 12.6611C146.94 12.8894 146.718 13.1937 146.659 13.5741H145.167C145.266 12.7957 145.641 12.1783 146.29 11.7218C146.94 11.2653 147.762 11.0371 148.757 11.0371C149.805 11.0371 150.624 11.2712 151.215 11.7394C151.812 12.2076 152.111 12.825 152.111 13.5916C152.111 14.0657 151.967 14.4899 151.68 14.8645C151.399 15.239 151.031 15.479 150.574 15.5843V15.7248C151.195 15.8594 151.666 16.114 151.988 16.4885C152.315 16.863 152.479 17.3254 152.479 17.8755C152.479 18.7533 152.134 19.4644 151.443 20.0086C150.753 20.5529 149.857 20.825 148.757 20.825Z" fill="#191919"/>
<path d="M136.317 19.4031V12.4682H132.727L132.429 16.515C132.329 17.7908 132.069 18.7067 131.647 19.2627V19.4031H136.317ZM130.515 23.1691H129.093V19.4031H129.883C130.211 19.1866 130.468 18.8179 130.655 18.2971C130.843 17.7703 130.96 17.1646 131.006 16.4799L131.375 11.2041H137.827V19.4031H139.337V23.1691H137.915V20.6672H130.515V23.1691Z" fill="#191919"/>
<path d="M123.123 19.5083C123.902 19.5083 124.546 19.283 125.055 18.8323C125.57 18.3817 125.827 17.817 125.827 17.1381V16.269L123.281 16.4358C122.568 16.4826 122.044 16.6319 121.71 16.8835C121.377 17.1352 121.21 17.5009 121.21 17.9808C121.21 18.4549 121.388 18.8294 121.745 19.1045C122.102 19.3737 122.562 19.5083 123.123 19.5083ZM122.843 20.8338C121.912 20.8338 121.145 20.5792 120.543 20.0701C119.946 19.5551 119.647 18.8704 119.647 18.0159C119.647 17.1732 119.946 16.5119 120.543 16.032C121.14 15.5521 121.991 15.28 123.097 15.2156L125.827 15.0488V14.1886C125.827 13.6033 125.646 13.1556 125.283 12.8455C124.92 12.5353 124.388 12.3802 123.685 12.3802C123.118 12.3802 122.647 12.4826 122.272 12.6874C121.897 12.8923 121.657 13.182 121.552 13.5565H120.025C120.124 12.8016 120.513 12.1929 121.192 11.7306C121.877 11.2683 122.726 11.0371 123.738 11.0371C124.885 11.0371 125.772 11.3151 126.398 11.8711C127.024 12.427 127.337 13.1995 127.337 14.1886V20.667H125.897V19.2713H125.757C125.453 19.7745 125.049 20.1608 124.546 20.43C124.042 20.6992 123.475 20.8338 122.843 20.8338Z" fill="#191919"/>
<path d="M113.678 11.0371C114.884 11.0371 115.846 11.4819 116.566 12.3714C117.292 13.261 117.655 14.449 117.655 15.9355C117.655 17.4161 117.292 18.6041 116.566 19.4995C115.84 20.389 114.878 20.8338 113.678 20.8338C113.005 20.8338 112.408 20.6963 111.887 20.4212C111.366 20.1403 110.977 19.7482 110.72 19.2449H110.579V23.8272H109.069V11.2039H110.509V12.784H110.649C110.954 12.2398 111.372 11.8125 111.905 11.5024C112.443 11.1922 113.034 11.0371 113.678 11.0371ZM113.318 19.4732C114.184 19.4732 114.863 19.1601 115.355 18.5339C115.846 17.9077 116.092 17.0415 116.092 15.9355C116.092 14.8294 115.846 13.9632 115.355 13.3371C114.869 12.7109 114.193 12.3978 113.327 12.3978C112.472 12.3978 111.794 12.7167 111.29 13.3546C110.787 13.9867 110.535 14.8469 110.535 15.9355C110.535 17.0181 110.784 17.8784 111.281 18.5163C111.785 19.1542 112.464 19.4732 113.318 19.4732Z" fill="#191919"/>
<path d="M101.897 19.5083C102.676 19.5083 103.319 19.283 103.829 18.8323C104.344 18.3817 104.601 17.817 104.601 17.1381V16.269L102.055 16.4358C101.341 16.4826 100.818 16.6319 100.484 16.8835C100.15 17.1352 99.9837 17.5009 99.9837 17.9808C99.9837 18.4549 100.162 18.8294 100.519 19.1045C100.876 19.3737 101.336 19.5083 101.897 19.5083ZM101.616 20.8338C100.686 20.8338 99.9193 20.5792 99.3165 20.0701C98.7196 19.5551 98.4211 18.8704 98.4211 18.0159C98.4211 17.1732 98.7196 16.5119 99.3165 16.032C99.9135 15.5521 100.765 15.28 101.871 15.2156L104.601 15.0488V14.1886C104.601 13.6033 104.42 13.1556 104.057 12.8455C103.694 12.5353 103.161 12.3802 102.459 12.3802C101.892 12.3802 101.42 12.4826 101.046 12.6874C100.671 12.8923 100.431 13.182 100.326 13.5565H98.7986C98.8981 12.8016 99.2873 12.1929 99.9661 11.7306C100.651 11.2683 101.499 11.0371 102.512 11.0371C103.659 11.0371 104.546 11.3151 105.172 11.8711C105.798 12.427 106.111 13.1995 106.111 14.1886V20.667H104.671V19.2713H104.531C104.227 19.7745 103.823 20.1608 103.319 20.43C102.816 20.6992 102.249 20.8338 101.616 20.8338Z" fill="#191919"/>
<path d="M94.462 20.6672V12.4682H89.827V20.6672H88.3171V11.2041H95.9719V20.6672H94.462Z" fill="#191919"/>
<path d="M76.0712 19.5083C76.8496 19.5083 77.4933 19.283 78.0025 18.8323C78.5175 18.3817 78.775 17.817 78.775 17.1381V16.269L76.2292 16.4358C75.5153 16.4826 74.9915 16.6319 74.6579 16.8835C74.3243 17.1352 74.1575 17.5009 74.1575 17.9808C74.1575 18.4549 74.336 18.8294 74.693 19.1045C75.05 19.3737 75.5094 19.5083 76.0712 19.5083ZM75.7903 20.8338C74.8598 20.8338 74.0932 20.5792 73.4904 20.0701C72.8934 19.5551 72.595 18.8704 72.595 18.0159C72.595 17.1732 72.8934 16.5119 73.4904 16.032C74.0873 15.5521 74.9388 15.28 76.0449 15.2156L78.775 15.0488V14.1886C78.775 13.6033 78.5935 13.1556 78.2307 12.8455C77.8679 12.5353 77.3353 12.3802 76.633 12.3802C76.0654 12.3802 75.5943 12.4826 75.2197 12.6874C74.8452 12.8923 74.6052 13.182 74.4999 13.5565H72.9724C73.0719 12.8016 73.4611 12.1929 74.14 11.7306C74.8247 11.2683 75.6733 11.0371 76.6857 11.0371C77.8328 11.0371 78.7194 11.3151 79.3456 11.8711C79.9718 12.427 80.2849 13.1995 80.2849 14.1886V20.667H78.8452V19.2713H78.7047C78.4004 19.7745 77.9966 20.1608 77.4933 20.43C76.99 20.6992 76.4224 20.8338 75.7903 20.8338Z" fill="#191919"/>
<path d="M71.1643 23.1691H69.7422V20.6672H62.0874V11.2041H63.5973V19.4031H68.1445V11.2041H69.6544V19.4031H71.1643V23.1691Z" fill="#191919"/>
<path d="M53.9284 20.6672H52.3658V9.43966H45.5889V20.6672H44V8H53.9284V20.6672Z" fill="#191919"/>
<path d="M57.1389 20.709V11.2344H58.6506V20.709H57.1389ZM58.6418 9.00195C58.4368 9.20703 58.1877 9.30957 57.8948 9.30957C57.6018 9.30957 57.3528 9.20703 57.1477 9.00195C56.9426 8.79102 56.8401 8.54199 56.8401 8.25488C56.8401 7.96777 56.9426 7.72168 57.1477 7.5166C57.3528 7.30566 57.6018 7.2002 57.8948 7.2002C58.1877 7.2002 58.4368 7.30566 58.6418 7.5166C58.8469 7.72168 58.9495 7.96777 58.9495 8.25488C58.9495 8.54199 58.8469 8.79102 58.6418 9.00195Z" fill="#191919"/>
<path d="M141.299 20.5088V11.0342H142.811V20.5088H141.299ZM142.802 8.80176C142.597 9.00684 142.348 9.10938 142.055 9.10938C141.762 9.10938 141.513 9.00684 141.308 8.80176C141.103 8.59082 141 8.3418 141 8.05469C141 7.76758 141.103 7.52148 141.308 7.31641C141.513 7.10547 141.762 7 142.055 7C142.348 7 142.597 7.10547 142.802 7.31641C143.007 7.52148 143.109 7.76758 143.109 8.05469C143.109 8.3418 143.007 8.59082 142.802 8.80176Z" fill="#191919"/>
</svg>
