<svg width="177" height="32" viewBox="0 0 177 32" fill="none" xmlns="http://www.w3.org/2000/svg">
<path d="M31.814 0.180314C31.6432 0.0118144 31.3908 -0.0444355 31.165 0.0364394L5.20549 9.29248C4.30361 8.74098 3.15968 8.61186 2.11049 9.0463C0.368934 9.76773 -0.461127 11.7715 0.260246 13.5132C1.96143 17.62 4.41761 21.296 7.56079 24.4392C10.704 27.5824 14.38 30.0386 18.4868 31.7398C18.9133 31.9164 19.3553 32 19.7906 32C21.1328 31.9999 22.409 31.2046 22.9536 29.8894C23.3201 29.0046 23.2855 28.0522 22.935 27.2344L31.9662 0.827375C32.0439 0.600376 31.9847 0.348876 31.814 0.180314ZM9.1361 9.21805L11.8873 8.23717C12.2103 8.5813 12.3678 9.05505 12.3047 9.53417C12.2491 9.95604 12.0326 10.3311 11.695 10.5902C11.3575 10.8492 10.9395 10.9612 10.5173 10.9057C10.0955 10.8502 9.72048 10.6337 9.46142 10.2961C9.22273 9.98504 9.10917 9.60554 9.1361 9.21805ZM21.7988 29.411C21.3411 30.5159 20.0698 31.0424 18.9651 30.5847C10.9627 27.27 4.72999 21.0373 1.41518 13.0348C1.19349 12.4996 1.19349 11.9102 1.41518 11.3749C1.63687 10.8397 2.05368 10.4229 2.58887 10.2012C3.12405 9.97954 3.71355 9.97954 4.24874 10.2012C4.78392 10.4229 5.20074 10.8397 5.42242 11.3749C6.84123 14.8003 8.88998 17.8665 11.5117 20.4882C14.1335 23.11 17.1996 25.1586 20.625 26.5775C21.7299 27.0351 22.2565 28.3063 21.7988 29.411ZM27.3514 10.458C27.2949 10.4567 27.2383 10.4534 27.1818 10.446C26.7599 10.3905 26.3849 10.174 26.1259 9.83642C25.8669 9.49886 25.7548 9.08055 25.8103 8.65873C25.925 7.78786 26.7266 7.17274 27.5978 7.28724C27.8665 7.32261 28.1188 7.42686 28.334 7.58542L27.3514 10.458ZM28.7494 6.37018C28.4449 6.20436 28.1104 6.09393 27.7609 6.04793C26.2064 5.84274 24.7756 6.9413 24.571 8.49561C24.4719 9.24848 24.6719 9.99492 25.1342 10.5974C25.5795 11.1777 26.217 11.5569 26.9361 11.6725L25.6939 15.3049L24.2653 14.2087C23.9914 13.9987 23.599 14.0502 23.389 14.324C23.1788 14.5979 23.2305 14.9902 23.5043 15.2003L25.2671 16.553L22.0363 26.0001C21.7653 25.7645 21.4532 25.5674 21.1036 25.4226C14.4799 22.6789 9.32117 17.5202 6.57761 10.8965C6.48223 10.6662 6.36373 10.4523 6.22705 10.2553L7.90073 9.65854C7.95917 10.1628 8.15273 10.6438 8.46979 11.057C8.93204 11.6595 9.60135 12.0459 10.3542 12.1449C10.4804 12.1615 10.6061 12.1698 10.7312 12.1698C11.353 12.1698 11.9545 11.9667 12.456 11.5819C13.0586 11.1195 13.4449 10.4503 13.5441 9.69729C13.633 9.02136 13.4753 8.35186 13.1211 7.79724L20.8903 5.02712L21.1847 5.73799C21.2845 5.97868 21.5171 6.12399 21.7624 6.12399C21.8421 6.12399 21.9231 6.10861 22.0013 6.07624C22.3202 5.94418 22.4716 5.57849 22.3396 5.25962L22.0692 4.60681L30.3641 1.64919L28.7494 6.37018Z" fill="#FF7010"/>
<path d="M6.75003 16.7673C6.74815 16.7643 6.74297 16.7564 6.74097 16.7535C6.54959 16.4665 6.16228 16.3894 5.87509 16.5806C5.58841 16.7715 5.51066 17.1589 5.70041 17.4461C5.82009 17.63 6.02034 17.7303 6.22491 17.7303C6.34065 17.7303 6.45772 17.6981 6.56222 17.631C6.85259 17.4443 6.93665 17.0576 6.75003 16.7673Z" fill="#FF7010"/>
<path d="M5.79949 15.2145C5.19043 14.1466 4.64293 13.029 4.17224 11.8928C4.04018 11.5738 3.67437 11.4225 3.35568 11.5546C3.03674 11.6866 2.88537 12.0523 3.01749 12.3711C3.50812 13.5556 4.07887 14.7206 4.71374 15.8337C4.82905 16.0358 5.04005 16.1492 5.25718 16.1492C5.36217 16.1492 5.46861 16.1227 5.56624 16.067C5.86605 15.896 5.97055 15.5143 5.79949 15.2145Z" fill="#FF7010"/>
<path d="M19.5582 7.99923C19.4343 7.98286 19.3085 7.97461 19.1842 7.97461C17.7644 7.97461 16.5538 9.03742 16.3683 10.4468C16.1637 12.001 17.2616 13.432 18.8158 13.6367C18.9397 13.653 19.0655 13.6613 19.1898 13.6613C20.6095 13.6613 21.8201 12.5985 22.0057 11.189C22.2103 9.63479 21.1123 8.20386 19.5582 7.99923ZM20.7665 11.0259C20.6625 11.8157 19.9847 12.4112 19.1898 12.4112C19.1199 12.4112 19.049 12.4066 18.979 12.3973C18.1081 12.2827 17.493 11.4809 17.6076 10.6099C17.7116 9.82017 18.3893 9.22467 19.1842 9.22467C19.2541 9.22467 19.325 9.22929 19.395 9.23854C20.2658 9.35329 20.8811 10.155 20.7665 11.0259Z" fill="#FF7010"/>
<path d="M19.3956 15.7732C19.2717 15.7568 19.1459 15.7485 19.0217 15.7485C17.6019 15.7485 16.3912 16.8113 16.2057 18.2208C16.1066 18.9737 16.3066 19.7201 16.7689 20.3226C17.2311 20.9251 17.9004 21.3115 18.6533 21.4107C18.7771 21.427 18.9029 21.4352 19.027 21.4352C20.4469 21.4352 21.6575 20.3724 21.8431 18.9629C22.0478 17.4088 20.9498 15.9779 19.3956 15.7732ZM20.6039 18.7998C20.4999 19.5897 19.822 20.1852 19.0272 20.1852C18.9574 20.1852 18.8864 20.1805 18.8165 20.1713C18.3947 20.1157 18.0197 19.8992 17.7606 19.5617C17.5016 19.2241 17.3895 18.8058 17.4451 18.3839C17.5491 17.5942 18.2269 16.9986 19.0217 16.9986C19.0915 16.9986 19.1625 17.0032 19.2324 17.0125C20.1032 17.1272 20.7185 17.929 20.6039 18.7998Z" fill="#FF7010"/>
<path d="M15.2734 13.1842L13.3524 12.9313C13.0104 12.8858 12.6962 13.1271 12.6512 13.4693C12.6061 13.8115 12.847 14.1255 13.1892 14.1705L15.1102 14.4235C15.1379 14.4272 15.1654 14.4289 15.1926 14.4289C15.5014 14.4289 15.77 14.2 15.8114 13.8855C15.8566 13.5433 15.6157 13.2293 15.2734 13.1842Z" fill="#FF7010"/>
<path d="M14.2993 17.7964L14.1297 16.5074C14.0846 16.1651 13.7707 15.9241 13.4285 15.9693C13.0862 16.0144 12.8454 16.3283 12.8904 16.6705L13.0601 17.9595C13.1015 18.2741 13.3701 18.503 13.6789 18.503C13.7061 18.503 13.7336 18.5012 13.7612 18.4976C14.1035 18.4525 14.3444 18.1386 14.2993 17.7964Z" fill="#FF7010"/>
<path d="M172.428 20.825C171.392 20.825 170.526 20.5909 169.83 20.1228C169.139 19.6487 168.753 19.0225 168.671 18.2442H170.225C170.318 18.6538 170.558 18.9757 170.945 19.2098C171.337 19.438 171.831 19.5522 172.428 19.5522C173.113 19.5522 173.654 19.4059 174.052 19.1132C174.45 18.8206 174.649 18.4344 174.649 17.9545C174.649 16.9069 173.909 16.3832 172.428 16.3832H170.953V15.1191H172.428C173.669 15.1191 174.289 14.648 174.289 13.7057C174.289 13.2902 174.128 12.9567 173.806 12.705C173.484 12.4475 173.025 12.3188 172.428 12.3188C171.86 12.3188 171.383 12.4329 170.997 12.6611C170.611 12.8894 170.389 13.1937 170.33 13.5741H168.838C168.937 12.7957 169.312 12.1783 169.961 11.7218C170.611 11.2653 171.433 11.0371 172.428 11.0371C173.476 11.0371 174.295 11.2712 174.886 11.7394C175.483 12.2076 175.781 12.825 175.781 13.5916C175.781 14.0657 175.638 14.4899 175.351 14.8645C175.07 15.239 174.702 15.479 174.245 15.5843V15.7248C174.866 15.8594 175.337 16.114 175.659 16.4885C175.986 16.863 176.15 17.3254 176.15 17.8755C176.15 18.7533 175.805 19.4644 175.114 20.0086C174.424 20.5529 173.528 20.825 172.428 20.825Z" fill="#191919"/>
<path d="M159.831 20.6672H158.321V11.2041H159.831V18.2619H159.972L164.686 11.2041H166.196V20.6672H164.686V13.6094H164.545L159.831 20.6672Z" fill="#191919"/>
<path d="M153.317 19.4031V12.4682H149.727L149.429 16.515C149.329 17.7908 149.069 18.7067 148.647 19.2627V19.4031H153.317ZM147.515 23.1691H146.093V19.4031H146.883C147.211 19.1866 147.468 18.8179 147.655 18.2971C147.843 17.7703 147.96 17.1646 148.006 16.4799L148.375 11.2041H154.827V19.4031H156.337V23.1691H154.915V20.6672H147.515V23.1691Z" fill="#191919"/>
<path d="M140.123 19.5083C140.902 19.5083 141.546 19.283 142.055 18.8323C142.57 18.3817 142.827 17.817 142.827 17.1381V16.269L140.281 16.4358C139.568 16.4826 139.044 16.6319 138.71 16.8835C138.377 17.1352 138.21 17.5009 138.21 17.9808C138.21 18.4549 138.388 18.8294 138.745 19.1045C139.102 19.3737 139.562 19.5083 140.123 19.5083ZM139.843 20.8338C138.912 20.8338 138.145 20.5792 137.543 20.0701C136.946 19.5551 136.647 18.8704 136.647 18.0159C136.647 17.1732 136.946 16.5119 137.543 16.032C138.14 15.5521 138.991 15.28 140.097 15.2156L142.827 15.0488V14.1886C142.827 13.6033 142.646 13.1556 142.283 12.8455C141.92 12.5353 141.388 12.3802 140.685 12.3802C140.118 12.3802 139.647 12.4826 139.272 12.6874C138.897 12.8923 138.657 13.182 138.552 13.5565H137.025C137.124 12.8016 137.513 12.1929 138.192 11.7306C138.877 11.2683 139.726 11.0371 140.738 11.0371C141.885 11.0371 142.772 11.3151 143.398 11.8711C144.024 12.427 144.337 13.1995 144.337 14.1886V20.667H142.897V19.2713H142.757C142.453 19.7745 142.049 20.1608 141.546 20.43C141.042 20.6992 140.475 20.8338 139.843 20.8338Z" fill="#191919"/>
<path d="M130.678 11.0371C131.884 11.0371 132.846 11.4819 133.566 12.3714C134.292 13.261 134.655 14.449 134.655 15.9355C134.655 17.4161 134.292 18.6041 133.566 19.4995C132.84 20.389 131.878 20.8338 130.678 20.8338C130.005 20.8338 129.408 20.6963 128.887 20.4212C128.366 20.1403 127.977 19.7482 127.72 19.2449H127.579V23.8272H126.069V11.2039H127.509V12.784H127.649C127.954 12.2398 128.372 11.8125 128.905 11.5024C129.443 11.1922 130.034 11.0371 130.678 11.0371ZM130.318 19.4732C131.184 19.4732 131.863 19.1601 132.355 18.5339C132.846 17.9077 133.092 17.0415 133.092 15.9355C133.092 14.8294 132.846 13.9632 132.355 13.3371C131.869 12.7109 131.193 12.3978 130.327 12.3978C129.472 12.3978 128.794 12.7167 128.29 13.3546C127.787 13.9867 127.535 14.8469 127.535 15.9355C127.535 17.0181 127.784 17.8784 128.281 18.5163C128.785 19.1542 129.464 19.4732 130.318 19.4732Z" fill="#191919"/>
<path d="M118.897 19.5083C119.676 19.5083 120.319 19.283 120.829 18.8323C121.344 18.3817 121.601 17.817 121.601 17.1381V16.269L119.055 16.4358C118.341 16.4826 117.818 16.6319 117.484 16.8835C117.15 17.1352 116.984 17.5009 116.984 17.9808C116.984 18.4549 117.162 18.8294 117.519 19.1045C117.876 19.3737 118.336 19.5083 118.897 19.5083ZM118.616 20.8338C117.686 20.8338 116.919 20.5792 116.317 20.0701C115.72 19.5551 115.421 18.8704 115.421 18.0159C115.421 17.1732 115.72 16.5119 116.317 16.032C116.913 15.5521 117.765 15.28 118.871 15.2156L121.601 15.0488V14.1886C121.601 13.6033 121.42 13.1556 121.057 12.8455C120.694 12.5353 120.161 12.3802 119.459 12.3802C118.892 12.3802 118.42 12.4826 118.046 12.6874C117.671 12.8923 117.431 13.182 117.326 13.5565H115.799C115.898 12.8016 116.287 12.1929 116.966 11.7306C117.651 11.2683 118.499 11.0371 119.512 11.0371C120.659 11.0371 121.546 11.3151 122.172 11.8711C122.798 12.427 123.111 13.1995 123.111 14.1886V20.667H121.671V19.2713H121.531C121.227 19.7745 120.823 20.1608 120.319 20.43C119.816 20.6992 119.249 20.8338 118.616 20.8338Z" fill="#191919"/>
<path d="M111.462 20.6672V12.4682H106.827V20.6672H105.317V11.2041H112.972V20.6672H111.462Z" fill="#191919"/>
<path d="M93.0712 19.5083C93.8496 19.5083 94.4933 19.283 95.0025 18.8323C95.5175 18.3817 95.775 17.817 95.775 17.1381V16.269L93.2292 16.4358C92.5153 16.4826 91.9915 16.6319 91.6579 16.8835C91.3243 17.1352 91.1575 17.5009 91.1575 17.9808C91.1575 18.4549 91.336 18.8294 91.693 19.1045C92.05 19.3737 92.5094 19.5083 93.0712 19.5083ZM92.7903 20.8338C91.8598 20.8338 91.0932 20.5792 90.4904 20.0701C89.8934 19.5551 89.595 18.8704 89.595 18.0159C89.595 17.1732 89.8934 16.5119 90.4904 16.032C91.0873 15.5521 91.9388 15.28 93.0449 15.2156L95.775 15.0488V14.1886C95.775 13.6033 95.5935 13.1556 95.2307 12.8455C94.8679 12.5353 94.3353 12.3802 93.633 12.3802C93.0654 12.3802 92.5943 12.4826 92.2197 12.6874C91.8452 12.8923 91.6052 13.182 91.4999 13.5565H89.9724C90.0719 12.8016 90.4611 12.1929 91.14 11.7306C91.8247 11.2683 92.6733 11.0371 93.6857 11.0371C94.8328 11.0371 95.7194 11.3151 96.3456 11.8711C96.9718 12.427 97.2849 13.1995 97.2849 14.1886V20.667H95.8452V19.2713H95.7047C95.4004 19.7745 94.9966 20.1608 94.4933 20.43C93.99 20.6992 93.4224 20.8338 92.7903 20.8338Z" fill="#191919"/>
<path d="M88.1643 23.1691H86.7422V20.6672H79.0874V11.2041H80.5973V19.4031H85.1445V11.2041H86.6544V19.4031H88.1643V23.1691Z" fill="#191919"/>
<path d="M77.1032 23.1691H75.6811V20.6672H68.0264V11.2041H69.5363V19.4031H74.0835V11.2041H75.5934V19.4031H77.1032V23.1691Z" fill="#191919"/>
<path d="M58.6512 20.6672H57.1414V11.2041H58.6512V18.2619H58.7917L63.5057 11.2041H65.0156V20.6672H63.5057V13.6094H63.3652L58.6512 20.6672Z" fill="#191919"/>
<path d="M53.9284 20.6672H52.3658V9.43966H45.5889V20.6672H44V8H53.9284V20.6672Z" fill="#191919"/>
</svg>
