<svg width="19" height="17" viewBox="0 0 19 17" fill="none" xmlns="http://www.w3.org/2000/svg">
<path d="M4.22917 16.2246C4.40322 16.2246 4.55765 16.1405 4.65401 16.0109L7.47834 13.1866C7.685 12.9799 7.685 12.6449 7.47834 12.4382C7.27169 12.2316 6.93664 12.2316 6.72999 12.4382L4.75833 14.4099V1.31242C4.75833 1.02017 4.52142 0.783252 4.22917 0.783252C3.93692 0.783252 3.7 1.02017 3.7 1.31242V14.4099L1.72834 12.4382C1.52169 12.2316 1.18664 12.2316 0.979989 12.4382C0.773337 12.6449 0.773337 12.9799 0.979989 13.1866L3.80432 16.0109C3.90069 16.1405 4.05511 16.2246 4.22917 16.2246ZM9.45 2.27075C9.45 2.563 9.68692 2.79992 9.97917 2.79992H17.6458C17.9381 2.79992 18.175 2.563 18.175 2.27075C18.175 1.9785 17.9381 1.74159 17.6458 1.74159H9.97917C9.68692 1.74159 9.45 1.9785 9.45 2.27075ZM9.45 6.10408C9.45 6.39634 9.68692 6.63325 9.97917 6.63325H15.7292C16.0214 6.63325 16.2583 6.39634 16.2583 6.10408C16.2583 5.81183 16.0214 5.57492 15.7292 5.57492H9.97917C9.68692 5.57492 9.45 5.81183 9.45 6.10408ZM9.45 9.93742C9.45 10.2297 9.68692 10.4666 9.97917 10.4666H13.8125C14.1048 10.4666 14.3417 10.2297 14.3417 9.93742C14.3417 9.64517 14.1048 9.40825 13.8125 9.40825H9.97917C9.68692 9.40825 9.45 9.64517 9.45 9.93742ZM9.45 13.7708C9.45 14.063 9.68692 14.2999 9.97917 14.2999H11.8958C12.1881 14.2999 12.425 14.063 12.425 13.7708C12.425 13.4785 12.1881 13.2416 11.8958 13.2416H9.97917C9.68692 13.2416 9.45 13.4785 9.45 13.7708Z" fill="#FF7010" stroke="#FF7010" stroke-width="0.1"/>
</svg>
