<?xml version="1.0" standalone="no"?>
<!DOCTYPE svg PUBLIC "-//W3C//DTD SVG 20010904//EN"
 "http://www.w3.org/TR/2001/REC-SVG-20010904/DTD/svg10.dtd">
<svg version="1.0" xmlns="http://www.w3.org/2000/svg"
 width="402.000000pt" height="397.000000pt" viewBox="0 0 402.000000 397.000000"
 preserveAspectRatio="xMidYMid meet">

<g transform="translate(0.000000,397.000000) scale(0.100000,-0.100000)"
fill="#000000" stroke="none">
<path d="M169 3811 c-28 -28 -29 -33 -29 -118 0 -48 5 -154 10 -235 41 -599
202 -1053 475 -1336 83 -87 215 -183 298 -217 26 -10 47 -23 47 -28 0 -5 -15
-30 -34 -56 -43 -59 -117 -207 -146 -291 -63 -184 -95 -380 -109 -660 -13
-259 -11 -262 249 -249 276 13 475 46 660 109 84 29 225 99 288 144 27 20 53
36 58 36 5 0 20 -25 33 -56 37 -85 130 -210 217 -294 301 -288 806 -452 1461
-476 l192 -7 32 32 32 32 -7 192 c-24 656 -188 1160 -476 1461 -84 87 -209
180 -294 217 -31 13 -56 28 -56 33 0 5 16 31 36 58 45 63 115 204 144 288 63
185 96 384 109 660 13 260 10 262 -249 249 -280 -14 -476 -46 -660 -109 -84
-29 -232 -103 -291 -146 -26 -19 -51 -34 -56 -34 -5 0 -18 21 -28 48 -72 174
-260 367 -480 493 -309 177 -812 288 -1308 289 -85 0 -90 -1 -118 -29z m331
-166 c162 -8 342 -33 540 -74 120 -26 294 -88 414 -148 210 -105 370 -255 445
-418 61 -131 64 -153 34 -207 -73 -127 -107 -268 -101 -418 1 -55 1 -100 -1
-100 -13 0 -231 227 -231 240 0 9 12 40 26 69 58 121 78 285 50 401 -28 111
-43 130 -109 130 -45 0 -91 -50 -84 -89 3 -14 11 -54 18 -89 10 -50 10 -78 1
-132 -12 -70 -39 -150 -51 -150 -3 0 -78 72 -166 160 l-159 159 21 38 c38 68
54 126 60 225 6 94 5 97 -20 122 -32 32 -83 35 -119 7 -21 -17 -27 -34 -37
-106 -13 -91 -27 -135 -45 -135 -5 0 -69 59 -141 130 -121 120 -135 130 -169
130 -50 0 -86 -36 -86 -86 0 -34 10 -48 130 -169 72 -72 130 -136 130 -141 0
-18 -44 -32 -135 -45 -72 -10 -89 -16 -106 -37 -28 -36 -25 -87 7 -119 25 -25
28 -26 122 -20 99 6 157 22 225 60 l38 21 159 -159 c88 -88 160 -163 160 -166
0 -12 -80 -39 -150 -51 -54 -9 -82 -9 -132 1 -35 7 -75 15 -89 18 -31 6 -84
-35 -91 -71 -7 -36 17 -85 49 -97 145 -57 333 -47 484 25 29 14 60 26 69 26
13 0 240 -218 240 -231 0 -2 -45 -2 -100 -1 -150 6 -291 -28 -418 -101 -54
-30 -76 -27 -207 34 -198 91 -373 305 -481 586 -31 80 -72 212 -83 268 -46
215 -59 305 -75 530 -13 179 -10 198 28 190 11 -2 73 -7 136 -10z m2666 -671
c-4 -81 -11 -167 -15 -193 -5 -25 -14 -77 -21 -116 -55 -316 -189 -546 -375
-646 -18 -10 -64 -28 -102 -41 -112 -37 -363 -29 -447 14 -16 9 -4 25 110 139
71 71 135 129 142 129 7 0 42 -10 78 -21 124 -40 324 -26 359 25 23 32 19 89
-7 113 -35 31 -61 35 -114 17 -53 -18 -147 -15 -167 5 -9 9 25 48 145 169 154
154 163 167 159 225 -2 32 -38 57 -83 57 -42 0 -47 -4 -200 -157 -117 -117
-161 -154 -169 -146 -20 20 -23 100 -5 162 9 32 13 67 10 77 -14 38 -47 64
-81 64 -80 0 -105 -47 -106 -200 -1 -83 4 -119 21 -172 12 -37 22 -73 22 -80
0 -7 -58 -71 -129 -142 -143 -143 -134 -140 -162 -41 -21 76 -18 295 5 370 97
317 421 486 1011 524 66 5 122 9 124 10 2 0 1 -65 -3 -145z m-1389 -1028 c28
-8 57 -17 63 -21 14 -9 -236 -265 -258 -265 -7 0 -43 10 -80 22 -53 17 -89 22
-172 21 -153 -1 -200 -26 -200 -106 0 -34 26 -67 64 -81 10 -3 45 1 77 10 62
18 142 15 162 -5 8 -8 -29 -52 -146 -169 -153 -153 -157 -158 -157 -200 0 -45
25 -81 58 -83 57 -4 70 5 224 159 121 120 160 154 169 145 20 -20 23 -114 5
-167 -18 -53 -14 -79 17 -113 24 -27 81 -31 113 -8 51 35 65 234 26 357 -12
37 -22 73 -22 80 0 7 58 71 129 142 144 143 136 142 162 36 8 -32 14 -107 13
-180 0 -130 -17 -210 -63 -295 -100 -186 -330 -320 -646 -375 -38 -7 -91 -16
-116 -21 -26 -4 -111 -11 -190 -15 l-145 -7 8 124 c26 457 139 763 338 921 72
57 155 91 270 112 44 8 244 -4 297 -18z m1282 -104 c237 -110 427 -368 532
-722 10 -36 23 -78 29 -95 41 -132 88 -490 89 -689 l1 -69 -152 7 c-306 15
-599 71 -831 160 -332 127 -546 327 -627 586 l-18 54 38 76 c70 137 94 249 88
401 -1 49 -1 89 1 89 12 0 231 -226 231 -238 0 -9 -11 -39 -25 -69 -73 -153
-83 -342 -27 -485 23 -57 104 -67 146 -17 31 36 31 32 9 132 -14 67 -15 89 -5
147 12 70 39 150 51 150 3 0 78 -72 166 -160 l159 -159 -21 -38 c-38 -68 -54
-126 -60 -225 -6 -94 -5 -97 20 -122 34 -34 86 -35 121 -3 21 18 27 36 35 102
11 92 25 135 43 135 7 0 71 -58 143 -130 121 -120 135 -130 169 -130 50 0 86
36 86 86 0 34 -10 48 -131 170 -85 86 -130 138 -126 147 6 16 68 33 160 43 45
5 62 12 77 32 29 36 26 87 -6 119 -25 25 -28 26 -122 20 -99 -6 -157 -22 -225
-60 l-38 -21 -159 159 c-88 88 -160 163 -160 166 0 12 80 39 150 51 58 10 80
9 147 -5 100 -22 96 -22 132 9 50 42 40 123 -17 146 -143 56 -332 46 -485 -27
-30 -14 -60 -25 -69 -25 -12 0 -238 219 -238 231 0 2 40 2 89 1 151 -6 272 20
404 88 72 37 72 37 121 23 27 -8 74 -26 105 -41z"/>
</g>
</svg>
